<svg width="228" height="102" viewBox="0 0 228 102" fill="none" xmlns="http://www.w3.org/2000/svg">
<path d="M1.14303 29.9441L74.0617 72.2787H74.209L65.2231 50.1526L91.1497 63.1333L89.5293 86.7344L183.808 99.7151L217.395 29.0591L226.233 10.4732L92.0336 1.03271L90.5605 49.2676L42.6846 25.5189L53.291 48.5301L1.14303 29.9441Z" fill="white"/>
<path d="M97.4829 56.938L65.2219 50.1526L91.1485 63.1332L89.5281 86.7344L183.807 99.7151L217.394 29.0591L180.419 86.4395L98.2195 75.0814L97.4829 56.938Z" fill="#B9E4FA"/>
<path d="M88.3497 87.7669L184.543 101.043L228 9.58798L226.38 9.4405L91.0013 0L89.5282 47.6448L40.3265 23.3061L51.2275 46.7598L1.58382 29.2064L0.699997 31.2716L76.5649 75.2287L67.4316 52.8076L89.9701 64.0182L88.3497 87.7669ZM183.07 98.5349L90.5594 85.7018L92.1797 62.3956L63.0123 47.7924L71.8509 69.7709L12.0429 35.1067L55.3521 50.4475L44.8931 27.8789L91.4432 51.0376L92.9163 2.36017L224.317 11.5056L183.07 98.5349Z" fill="#38313C"/>
</svg>
