<svg width="229" height="102" viewBox="0 0 229 102" fill="none" xmlns="http://www.w3.org/2000/svg">
<path d="M227.898 30.5203L154.882 72.8549H154.734L163.732 50.7288L137.771 63.7094L139.394 87.3106L44.9889 100.291L11.3573 29.6353L2.50684 11.0494L136.886 1.60889L138.361 49.8438L186.301 26.0951L175.68 49.1063L227.898 30.5203Z" fill="white"/>
<path d="M131.428 57.5142L163.732 50.7288L137.771 63.7094L139.394 87.3106L44.9891 100.291L11.3574 29.6353L48.3817 87.0156L130.691 75.6576L131.428 57.5142Z" fill="#B9E4FA"/>
<path d="M140.574 88.3431L44.252 101.619L0.737305 10.1641L2.35985 10.0167L137.919 0.576172L139.394 48.221L188.662 23.8823L177.746 47.336L227.456 29.7826L228.341 31.8477L152.375 75.8049L161.52 53.3838L138.952 64.5944L140.574 88.3431ZM45.727 99.111L138.362 86.278L136.739 62.9718L165.946 48.3686L157.095 70.3471L216.983 35.6829L173.616 51.0237L184.089 28.4551L137.477 51.6138L136.002 2.93634L4.42499 12.0817L45.727 99.111Z" fill="#38313C"/>
</svg>
