<svg width="295" height="250" viewBox="0 0 295 250" fill="none" xmlns="http://www.w3.org/2000/svg">
<path d="M103.993 0L124.939 57.9704L101.338 1.03256L103.993 0Z" fill="#030303"/>
<path d="M224.654 223.916L195.447 187.629L226.719 221.998L224.654 223.916Z" fill="#030303"/>
<path d="M1.03257 105.91L30.0914 118.891L0 108.565L1.03257 105.91Z" fill="#030303"/>
<path d="M257.696 15.9303L201.2 70.3605L255.63 13.8652L257.696 15.9303Z" fill="#030303"/>
<path d="M41.1543 238.372L92.4869 195.595L43.072 240.584L41.1543 238.372Z" fill="#030303"/>
<path d="M59.7413 55.61L92.1929 74.6385L61.2164 53.2499C60.6263 52.8074 59.7412 52.9549 59.2987 53.6924C58.8562 54.2824 59.0038 55.1675 59.7413 55.61Z" fill="#030303"/>
<path d="M175.681 248.107L167.568 208.87L172.731 248.55C172.879 249.435 173.616 250.025 174.354 249.877C175.239 249.73 175.829 249.14 175.681 248.107Z" fill="#030303"/>
<path d="M177.304 24.0443L168.748 50.5957L169.486 22.8643C169.486 20.6517 171.403 18.8816 173.468 19.0291C175.681 19.0291 177.451 20.9467 177.304 23.0118C177.599 23.3068 177.451 23.7493 177.304 24.0443Z" fill="#030303"/>
<path d="M268.906 185.27L248.845 165.946L273.478 178.779C275.396 179.812 276.134 182.32 275.101 184.09C274.069 186.155 271.708 186.892 269.791 185.86C269.496 185.86 269.201 185.565 268.906 185.27Z" fill="#030303"/>
<path d="M25.9614 148.54L53.6927 146.327L27.7314 156.358C25.6663 157.095 23.3062 156.21 22.5687 153.998C21.8311 152.08 22.8637 149.72 24.9288 148.835C25.2239 148.687 25.6664 148.54 25.9614 148.54Z" fill="#030303"/>
<path d="M100.895 244.567L125.233 201.348L107.09 246.19C106.795 248.107 105.173 249.288 103.402 248.993C101.632 248.697 100.305 247.075 100.6 245.305C100.6 245.01 100.747 244.715 100.895 244.567Z" fill="#030303"/>
<g opacity="0.7">
<path d="M293.098 137.477C299.735 123.612 286.607 102.961 262.859 94.9953C259.023 93.6677 255.188 92.9302 251.353 92.4876C245.158 84.9648 234.537 78.4744 221.999 75.8193C213.739 74.0492 205.773 74.1967 198.693 75.8193C190.432 61.0686 168.454 48.973 141.755 49.268C109.303 49.563 84.5221 67.7064 81.7195 86.5873C76.8518 86.2923 71.8366 86.7348 66.6738 87.9149C42.7776 93.2252 28.027 112.254 33.1897 126.709C33.9273 128.922 35.2547 130.987 36.7298 132.905C17.2588 141.018 7.37589 159.308 13.5712 172.437C17.2589 180.697 25.6668 185.417 35.1072 186.892C35.2547 189.4 35.6973 191.76 36.5823 193.973C42.6301 208.133 59.8885 214.034 75.6717 209.461C84.5222 206.806 91.6026 201.348 96.1753 194.268C104.731 209.018 121.104 218.016 138.51 217.426C153.851 216.984 167.569 209.166 176.272 197.07C181.435 200.02 187.187 202.381 193.53 203.561C216.099 207.838 239.995 198.545 247.813 178.189C248.845 175.387 249.288 172.437 249.435 169.486C263.596 170.667 277.019 165.946 282.035 154.883C283.067 152.376 283.51 149.868 283.51 147.213C287.492 145 291.18 141.903 293.098 137.477Z" fill="#CF992A"/>
</g>
<path d="M288.524 132.167C294.867 119.334 282.181 100.158 259.318 92.6352C255.482 91.4552 251.795 90.7177 248.255 90.2751C242.207 83.1948 232.029 77.147 219.786 74.7869C211.82 73.1643 204.002 73.3118 197.217 74.7869C189.104 61.0687 168.011 49.8581 142.049 50.1532C110.63 50.4482 86.5865 67.264 83.9314 84.8174C79.2111 84.5224 74.3435 84.8174 69.3283 85.9974C46.1696 91.0127 31.8614 108.566 36.8767 121.989C37.6142 124.054 38.9417 125.972 40.2692 127.742C21.3883 135.265 11.8004 152.228 17.8482 164.471C21.3884 172.142 29.5012 176.419 38.6467 177.894C38.7942 180.107 39.2367 182.32 40.1217 184.532C45.8745 197.66 62.6903 203.266 77.8836 198.988C86.439 196.48 93.2244 191.465 97.7971 184.827C106.057 198.546 121.841 206.806 138.804 206.363C153.702 205.921 166.978 198.693 175.238 187.482C180.254 190.285 185.859 192.35 191.907 193.53C213.738 197.513 236.897 188.81 244.419 169.929C245.304 167.274 245.894 164.619 245.894 161.964C259.613 162.996 272.593 158.719 277.461 148.393C278.494 146.18 278.789 143.673 278.936 141.313C283.214 139.1 286.607 136.15 288.524 132.167Z" fill="white"/>
<g opacity="0.4">
<path d="M193.677 184.385C187.335 183.205 181.582 180.992 176.419 178.189C167.864 189.4 153.998 196.48 138.657 197.07C120.956 197.513 104.731 189.253 96.1751 175.682C91.4549 182.172 84.3745 187.482 75.5241 189.99C61.5109 193.825 46.9076 190.285 39.3848 180.697C39.5323 182.025 39.6797 183.352 40.2698 184.532C46.0226 197.66 62.8384 203.266 78.0316 198.988C86.587 196.48 93.3724 191.465 97.9451 184.827C106.206 198.546 121.989 206.806 138.952 206.363C153.85 205.921 167.126 198.693 175.386 187.482C180.402 190.285 186.007 192.35 192.055 193.53C213.886 197.513 237.045 188.81 244.567 169.929C245.01 168.454 245.157 167.126 245.452 165.651C235.864 181.287 214.623 188.22 193.677 184.385Z" fill="#D3D4D5"/>
</g>
<path d="M177.304 188.22C177.009 188.662 176.714 189.105 176.271 189.695C176.271 189.99 176.123 189.99 175.976 190.285C174.501 192.793 172.288 195.153 169.781 197.365C167.716 199.873 164.47 201.79 161.373 203.708C157.833 205.183 154.587 207.248 150.752 207.986C147.065 209.461 143.082 209.313 139.099 210.051C134.821 209.608 131.724 209.903 127.594 208.871C123.463 208.281 120.071 206.511 116.383 205.183C113.285 203.413 109.893 201.79 107.533 199.283C104.877 197.218 102.517 195.005 100.895 192.645C98.8296 190.432 97.7972 188.072 96.7646 186.007C95.732 183.942 94.9945 182.172 94.6995 180.549C94.2569 177.452 93.8145 175.682 93.8145 175.682C93.8145 175.682 94.552 177.304 95.8796 180.254C96.3221 181.729 97.3547 183.352 98.8297 185.122C100.01 186.892 101.485 188.957 103.55 190.727C105.32 192.792 107.533 194.563 110.188 196.185C112.548 198.25 115.793 199.283 118.743 200.905C121.841 201.938 125.086 203.266 128.331 203.708C131.134 204.741 135.707 204.298 138.804 204.741C142.197 204.151 145.885 204.298 149.13 203.118C152.522 202.528 155.62 200.905 158.718 199.725C161.373 197.955 164.47 196.628 166.831 194.71C169.191 192.793 171.551 190.875 173.026 188.662C173.173 188.515 173.321 188.367 173.468 188.072C173.911 187.777 174.206 187.482 174.353 187.187C175.238 187.482 176.271 187.925 177.304 188.22Z" fill="#010101"/>
<path d="M245.894 172.289C244.272 175.535 242.797 179.075 239.847 181.73C237.487 184.975 233.946 186.893 230.701 189.548C226.571 191.465 223.916 193.236 219.491 194.416C215.508 196.038 211.23 196.186 207.395 196.776C203.265 196.776 199.43 197.071 195.889 196.333C192.202 195.891 189.104 195.301 186.007 193.973C183.056 193.236 180.549 191.908 178.336 190.728C177.599 190.433 177.009 190.138 176.419 189.695C175.386 189.105 174.353 188.515 173.616 187.778C173.468 187.63 173.173 187.483 172.878 187.188C170.076 185.123 168.453 183.943 168.453 183.943C168.453 183.943 170.223 184.828 173.468 186.45C173.763 186.598 174.058 186.893 174.353 186.893C175.238 187.483 176.271 187.925 177.304 188.22C177.894 188.368 178.484 188.663 179.074 188.81C181.286 189.695 183.794 190.58 186.744 191.023C189.547 191.76 192.644 192.055 196.037 192.203C199.282 192.645 202.675 191.908 206.215 191.76C209.608 191.17 213.295 190.58 216.54 189.253C219.786 188.663 223.621 186.008 226.571 184.68C229.226 182.467 232.619 180.697 234.536 177.895C237.044 175.535 238.519 172.584 240.142 169.929C240.732 167.422 241.912 165.209 242.059 162.701C242.354 162.406 242.207 162.111 242.207 161.669C242.649 161.669 243.239 161.816 243.829 161.816C245.009 161.816 246.337 161.964 247.517 161.816V161.964C247.665 162.406 247.517 162.997 247.517 163.587C247.517 166.537 246.632 169.339 245.894 172.289Z" fill="#010101"/>
<path d="M279.378 150.311C277.608 152.671 276.871 154.736 274.216 156.506C272.298 158.719 269.496 159.751 267.135 161.226C264.333 162.111 261.825 163.291 258.875 163.291C256.072 163.734 253.417 164.029 250.762 163.881C249.582 163.881 248.549 163.881 247.517 163.734C246.189 163.586 245.009 163.439 243.829 163.144C243.092 162.996 242.502 162.996 241.912 162.849C240.584 162.701 239.552 162.406 238.519 161.964C235.716 161.079 234.094 160.636 234.094 160.636C234.094 160.636 235.864 160.931 238.814 161.521C239.846 161.669 240.879 161.964 242.207 161.964C242.649 161.964 243.239 162.111 243.829 162.111C245.009 162.111 246.337 162.259 247.517 162.111C248.402 162.259 249.287 162.111 250.172 162.111C252.532 162.111 254.892 161.669 257.4 161.079C259.908 160.636 262.12 159.456 264.48 158.571C266.693 157.391 269.053 156.211 270.528 154.293C272.593 152.966 273.626 150.163 274.806 148.541C275.101 147.066 275.838 145.443 276.133 143.968C276.133 143.673 276.133 143.525 276.281 143.23C277.166 142.935 277.903 142.198 278.789 141.608C279.379 141.313 279.821 140.87 280.559 140.575C280.706 141.165 280.706 141.608 280.559 142.198C280.559 142.345 280.559 142.345 280.559 142.493C281.296 145 279.968 147.508 279.378 150.311Z" fill="#010101"/>
<path d="M289.409 134.379C288.082 136.297 286.754 137.919 284.984 139.247C283.951 140.427 282.181 141.312 280.706 141.902C280.411 142.05 280.264 142.197 279.969 142.345C278.789 142.935 277.461 143.377 276.281 143.672C276.133 143.82 275.838 143.82 275.543 143.967C274.216 144.262 273.183 144.557 272.298 144.705C272.741 144.41 273.773 143.967 275.101 143.525C275.543 143.377 275.986 143.23 276.428 142.935C277.313 142.64 278.051 141.902 278.936 141.312C279.526 141.017 279.969 140.575 280.706 140.28C281.591 139.542 282.476 138.805 283.066 137.772C284.541 136.592 285.721 134.822 286.459 132.757C287.639 130.987 287.639 128.626 288.082 126.266C287.786 123.906 287.934 121.399 286.754 118.744C286.164 116.236 283.951 113.286 282.181 110.483C280.116 108.27 277.904 105.32 274.806 103.255C272.298 100.895 268.906 99.125 265.66 97.355C262.12 95.8799 258.875 94.1098 255.482 93.5198C252.237 92.6347 248.992 91.8972 246.042 91.7497C242.944 91.3072 240.437 91.3072 238.076 91.4547C235.716 91.3072 233.651 91.4547 232.324 92.0447C229.964 92.4872 228.341 92.7822 227.751 92.9297C228.341 92.7822 229.964 92.1922 232.029 91.6022C233.356 91.0121 235.126 90.5696 237.634 90.4221C239.994 90.1271 242.649 89.8321 245.747 90.1271C248.992 90.1271 252.385 90.7171 255.925 91.6022C259.76 92.3397 263.448 93.9623 267.136 95.4374C270.676 97.355 274.658 99.2725 277.609 101.928C281.149 104.435 283.214 107.09 286.164 110.336C287.934 113.138 289.852 115.941 290.442 119.039C291.769 122.136 291.474 124.791 291.622 127.446C291.032 129.954 290.884 132.462 289.409 134.379Z" fill="#010101"/>
<path d="M250.172 92.4875C250.172 92.1925 250.024 91.8974 249.729 91.6024C249.434 91.1599 249.287 90.7174 248.992 90.4224C247.369 88.3573 245.009 86.4397 242.649 84.5221C239.699 82.457 236.454 80.0969 232.176 78.4743C228.341 76.5567 224.211 75.6716 220.08 74.4916C215.213 73.9016 211.082 73.0165 206.657 73.3115C203.855 73.3115 201.2 73.6065 198.544 74.1966C197.217 74.3441 196.184 74.6391 194.709 74.9341C194.562 75.0816 194.119 75.0816 193.972 75.0816C194.562 75.9667 195.152 76.7042 195.594 77.4417C196.037 77.4417 196.184 77.2942 196.627 77.1467C197.807 76.9992 198.839 76.8517 200.019 76.7042C202.38 76.2617 204.887 75.9667 207.395 76.1142C211.23 75.6716 215.36 76.7042 218.9 77.1467C223.03 78.3268 227.456 79.2118 230.553 80.8344C234.241 82.162 237.044 84.2271 240.141 85.9971C241.764 87.4722 243.682 88.7998 245.157 90.2749C245.747 90.8649 246.337 91.4549 246.779 92.045C247.959 92.045 249.139 92.1925 250.172 92.4875Z" fill="#010101"/>
<path d="M85.9965 84.3743C85.554 85.1118 85.4065 85.8494 85.259 86.4394C84.5214 86.4394 83.7839 86.4394 83.0464 86.4394C80.9812 86.4394 78.7686 86.5869 76.556 86.7344C73.0158 87.1769 69.0333 87.6194 65.6406 88.947C62.1004 89.832 58.4127 91.8972 54.8725 93.5197C52.3649 95.4373 48.8247 97.3549 46.6121 99.715C43.957 101.928 42.6294 104.435 40.7118 106.795C39.8268 109.156 38.2041 111.516 38.0566 113.728C37.6141 115.941 37.3192 118.006 37.7617 119.924C37.9092 121.841 38.6468 123.316 39.0893 124.791C39.5318 126.266 40.2692 127.446 41.1542 128.331C42.3343 129.659 42.9244 130.692 43.0719 130.987C42.7769 130.544 41.8919 129.807 40.5644 128.626C39.5318 127.889 38.6467 126.856 37.9091 125.381C36.8766 123.906 35.8441 122.579 35.5491 120.514C34.959 118.596 34.8115 116.383 35.1065 114.023C35.1065 111.811 36.2865 109.008 37.3191 106.5C38.9417 103.845 40.7119 101.043 43.5145 98.535C45.8746 95.7323 49.4146 93.6672 52.9548 91.3071C56.79 89.6845 59.8877 87.6194 64.4605 86.5869C68.5907 85.1118 72.7209 84.8168 76.7036 84.2268C78.9163 84.2268 81.1288 84.0793 83.0464 84.2268C84.2264 84.0793 85.259 84.0793 85.9965 84.3743Z" fill="#010101"/>
<path d="M40.1219 175.682C39.5319 175.682 38.9419 175.534 38.3519 175.387C38.2044 175.239 37.7618 175.239 37.6143 175.239C35.1067 174.797 33.189 173.469 30.6814 172.584C28.6163 171.404 26.2562 170.224 24.7811 168.306C22.8635 166.831 21.831 164.324 20.5034 162.554C19.9134 160.194 18.5858 157.686 18.8808 155.326C18.5858 153.113 19.3233 150.458 19.9134 148.098C21.0934 145.59 21.831 143.23 23.4536 141.018C24.9287 138.805 26.6986 136.74 28.6162 135.117C30.3863 133.347 32.304 131.872 34.0741 130.692C35.8442 129.364 37.4667 128.479 38.9418 127.742C41.8919 126.267 43.6621 125.529 43.6621 125.529C43.6621 125.529 41.7445 126.119 38.6468 127.299C36.8767 127.742 35.1066 128.627 33.0415 129.807C30.9764 130.84 28.6163 132.167 26.5512 134.085C24.1911 135.707 22.2735 137.92 20.3559 140.28C18.1433 142.64 16.9632 145.295 15.7832 147.95C15.0456 150.753 14.1606 153.556 14.3081 156.358C14.0131 159.604 15.1931 161.669 15.9306 164.176C17.7007 166.831 18.7333 169.044 20.9459 170.814C22.8635 172.732 25.5186 174.059 27.8787 175.387C30.5338 176.272 33.0415 177.452 35.8441 177.599C36.5817 177.747 37.1718 177.747 37.7618 177.894C38.3518 178.042 39.0893 178.042 39.6793 178.189C40.2693 177.304 40.2694 176.567 40.1219 175.682Z" fill="#010101"/>
<path d="M98.0919 184.827C98.0919 184.827 97.2068 186.007 95.8793 187.924C95.2892 188.957 94.2567 189.99 92.9291 191.17C91.749 192.35 90.2739 193.677 88.2088 194.857C86.4387 196.185 84.2262 197.217 81.8661 198.102C79.5059 199.282 76.8507 199.725 74.1956 200.463C71.3929 200.758 68.4427 201.2 65.4926 200.905C62.5425 201.053 59.74 200.02 56.7898 199.577C53.9872 198.25 51.4794 197.66 49.1193 195.742C46.6117 194.267 44.8417 192.35 43.0716 190.432C41.744 188.367 40.1214 186.449 39.5314 184.089C38.7938 182.024 38.2039 179.812 38.3514 177.746C38.0564 175.681 38.4988 173.911 38.9413 172.141C39.2363 170.519 39.8263 169.043 40.4164 168.011C41.5964 165.651 42.334 164.323 42.334 164.323C42.334 164.323 41.8915 165.651 41.0064 168.011C40.5639 169.191 40.2689 170.519 40.1214 172.141C39.9739 173.764 39.8264 175.534 40.2689 177.451C40.2689 179.369 41.0064 181.287 41.8914 183.204C42.4815 185.269 44.2516 186.892 45.4316 188.809C47.2017 190.432 48.8244 192.202 51.037 193.382C52.8071 194.857 55.9046 195.742 58.1172 196.775C60.7724 197.217 63.28 198.25 66.0827 198.25C68.7378 198.692 71.393 198.25 73.9006 198.102C76.4083 197.512 79.0634 197.365 81.1285 196.332C83.3411 195.595 85.5537 194.71 87.3238 193.677C89.2414 192.792 90.7164 191.612 92.0439 190.58C93.519 189.695 94.6991 188.662 95.4367 187.777C97.2067 185.859 98.0919 184.827 98.0919 184.827Z" fill="#010101"/>
<path d="M201.79 87.9148C201.052 91.0124 200.757 92.93 200.757 92.93C200.757 92.93 200.462 91.16 200.02 87.7673C199.872 86.1447 199.282 84.2271 198.102 82.0145C197.217 79.8019 195.889 77.2943 193.677 74.7866C192.202 72.279 189.399 69.6239 186.154 67.2638C183.056 64.6086 178.483 62.691 174.501 60.3309C169.78 58.5608 164.765 56.6432 159.455 55.7582C154.587 54.2831 147.507 54.2831 141.459 53.9881C136.739 54.4306 129.806 54.4306 124.791 56.0532C119.185 57.0858 114.465 59.1509 109.745 61.0685C105.615 63.4286 101.042 65.6412 98.2395 68.2963C94.9943 70.8039 92.1917 73.4591 90.7166 75.9667C88.504 78.4743 87.4714 80.9819 86.5863 83.047C86.2913 83.4896 85.9963 84.0796 85.8488 84.3746C85.4063 85.1121 85.2588 85.8497 85.1113 86.4397C84.9638 87.3248 84.6688 88.2098 84.8163 88.9473C84.3738 92.1925 83.9311 94.1101 83.9311 94.1101C83.9311 94.1101 83.6362 92.1925 83.0461 89.0948C82.7511 88.2098 82.7512 87.3248 82.8987 86.2922C82.7512 85.7022 82.8986 84.8171 83.0461 84.0796C83.1936 83.7846 83.1936 83.4896 83.1936 83.1945C83.4886 80.8344 83.9312 78.0318 85.8488 75.2292C87.1764 72.1315 89.6839 69.1813 92.7816 66.0837C95.5842 62.8385 100.157 60.1834 104.73 57.3808C109.745 55.1682 115.203 52.3655 121.841 51.0379C128.331 49.1204 134.674 48.9728 142.344 48.3828C148.835 48.9728 154.882 48.8253 161.668 50.7429C168.6 51.923 173.911 54.4306 179.221 56.6432C183.794 59.4459 188.514 61.9535 191.317 65.1987C194.414 68.2963 197.069 71.099 198.249 74.0491C200.167 76.8517 200.904 79.6544 201.199 82.0145C202.085 84.2271 202.085 86.2922 201.79 87.9148Z" fill="#010101"/>
</svg>
