<svg width="238" height="288" viewBox="0 0 238 288" fill="none" xmlns="http://www.w3.org/2000/svg">
<path d="M137.1 5.63478V17.5348L133.6 20.4348L121 30.9348C116.3 29.6348 112.2 28.2348 109.2 26.4348C107.4 25.4348 106.7 23.1347 107.6 21.3347C108.8 18.7347 111.5 17.3348 114.9 17.9348C112 8.43483 116.3 2.9348 123.2 7.0348C124.1 7.5348 125 8.2348 125.9 9.0348C127.1 3.9348 130.8 1.03475 134.1 1.73475C135.9 2.23475 137.1 3.83478 137.1 5.63478Z" fill="#EC2025"/>
<path d="M134.1 1.83473C132.6 1.53473 131 1.93483 129.6 2.93483C129.9 2.93483 130.2 2.9348 130.6 3.0348C132.4 3.4348 133.6 5.03473 133.6 6.83473V18.7348L130.1 21.6348L119.5 30.4348C120 30.5348 120.5 30.7347 121 30.8347L133.6 20.3347L137.1 17.4348V5.5348C137.1 3.8348 135.9 2.23473 134.1 1.83473Z" fill="white"/>
<g opacity="0.2">
<path d="M133.6 20.5349L121 31.0349C116.3 29.7349 112.2 28.3349 109.2 26.5349C107.4 25.5349 106.7 23.2349 107.6 21.4349C108.8 18.8349 111.5 17.4349 114.9 18.0349C112 8.5349 116.3 3.03488 123.2 7.13488C123 9.73488 123.5 12.4349 124.9 14.7349C126.7 17.8349 130 19.9349 133.6 20.5349Z" fill="#242568"/>
</g>
<path d="M121 32.6348C120.9 32.6348 120.7 32.6348 120.6 32.5348C114.9 30.9348 111.1 29.5348 108.4 27.9348C105.9 26.4348 104.9 23.3348 106.2 20.7348C107.5 18.0348 109.9 16.5347 112.8 16.3347C111.7 11.1347 112.7 7.03479 115.6 5.13479C118.1 3.53479 121.5 4.03484 125.1 6.43484C126.9 2.03484 130.7 -0.465234 134.5 0.234766C137 0.734766 138.8 3.03479 138.8 5.63479V17.5348C138.8 18.0348 138.6 18.4347 138.2 18.8347L122.1 32.2348C121.7 32.5348 121.4 32.6348 121 32.6348ZM113.4 19.5348C111.5 19.5348 109.9 20.4348 109.1 22.1348C108.6 23.2348 109 24.5348 110.1 25.1348C112.4 26.5348 115.8 27.8348 120.7 29.2348L135.6 16.8347V5.63479C135.6 4.53479 134.9 3.63484 133.9 3.43484C131.6 2.93484 128.6 5.13481 127.6 9.53481C127.5 10.1348 127.1 10.5348 126.5 10.7348C126 10.9348 125.4 10.8348 124.9 10.4348C121.8 7.73484 119 6.83484 117.4 7.93484C115.8 8.93484 114.9 12.3348 116.5 17.6348C116.7 18.1348 116.5 18.7348 116.2 19.2348C115.8 19.6348 115.3 19.8348 114.7 19.7348C114.2 19.5348 113.8 19.5348 113.4 19.5348Z" fill="#242568"/>
<path d="M169.1 240.635L164.9 229.535L160.6 228.035L145.1 222.735C141.2 225.635 137.8 228.435 135.7 231.035C134.4 232.635 134.5 234.935 136 236.435C138.1 238.435 141.1 238.735 144 237.035C144.7 246.935 150.6 250.535 155.6 244.235C156.2 243.435 156.9 242.535 157.5 241.335C160.4 245.735 164.9 247.035 167.8 245.235C169.2 244.235 169.8 242.335 169.1 240.635Z" fill="#EC2025"/>
<g opacity="0.2">
<path d="M160.6 228.035L145.1 222.735C141.2 225.635 137.8 228.435 135.7 231.035C134.4 232.635 134.5 234.935 136 236.435C138.1 238.435 141.1 238.735 144 237.035C144.7 246.935 150.6 250.535 155.6 244.235C154.5 241.835 154 239.135 154.5 236.535C155.1 232.935 157.4 229.835 160.6 228.035Z" fill="#242568"/>
</g>
<path d="M150.399 248.935C149.999 248.935 149.599 248.935 149.199 248.835C145.899 248.135 143.399 244.535 142.599 239.335C139.799 240.135 136.999 239.535 134.799 237.535C132.699 235.535 132.499 232.235 134.299 229.935C136.299 227.435 139.299 224.835 143.999 221.335C144.399 221.035 144.999 220.935 145.499 221.135L165.399 227.935C165.899 228.135 166.199 228.435 166.399 228.935L170.599 240.035C171.499 242.435 170.599 245.235 168.499 246.635C165.199 248.735 160.799 247.635 157.499 244.235C155.399 247.335 152.899 248.935 150.399 248.935ZM143.899 235.335C144.199 235.335 144.399 235.435 144.699 235.535C145.199 235.835 145.499 236.335 145.599 236.835C145.999 242.335 147.999 245.235 149.899 245.635C151.799 246.035 154.099 244.135 155.999 240.635C156.299 240.135 156.799 239.835 157.399 239.735C157.999 239.735 158.499 239.935 158.799 240.435C161.299 244.135 164.899 245.135 166.799 243.835C167.699 243.335 167.999 242.135 167.599 241.135L163.599 230.735L145.299 224.435C141.199 227.435 138.499 229.835 136.899 231.935C136.099 232.835 136.199 234.235 137.099 235.135C138.699 236.635 140.999 236.835 143.099 235.535C143.299 235.435 143.599 235.335 143.899 235.335Z" fill="#242568"/>
<path d="M214.5 201.235C212.2 210.935 206.8 219.235 199.6 225.235C198.6 226.035 197.6 226.835 196.5 227.635C188.9 232.935 179.8 236.035 170.2 236.035C166.7 236.035 163.2 235.635 159.7 234.835C135.2 229.035 120.1 204.735 125.9 180.535C134.8 143.435 130.4 102.835 114.6 77.0347C104.8 61.0347 106.3 41.4346 116.7 27.1346C120.2 22.3346 124.6 18.2347 130 15.0347C137.4 10.6347 145.5 8.53467 153.5 8.53467C168.9 8.53467 184 16.2346 192.6 30.3346C207.1 54.1346 216.6 83.1346 220.1 114.235C223.2 142.735 221.3 172.935 214.5 201.235Z" fill="#EC2025"/>
<g opacity="0.5">
<path d="M220 114.135C216.5 82.9345 207 53.9345 192.5 30.2345C183.9 16.2345 168.9 8.43457 153.4 8.43457C152.5 8.43457 151.7 8.43455 150.8 8.53455C165.3 9.33455 179.1 17.0345 187.1 30.2345C201.6 54.0345 211.1 83.0345 214.6 114.135C217.8 142.835 215.9 172.934 209.1 201.234C206.8 210.934 201.4 219.234 194.2 225.234C193.2 226.035 192.2 226.835 191.1 227.635C184.2 232.435 176 235.435 167.3 235.935C168.2 236.035 169.1 236.035 170 236.035C179.6 236.035 188.8 233.035 196.3 227.635C197.4 226.935 198.4 226.134 199.4 225.234C206.6 219.234 211.9 210.934 214.3 201.234C221.3 172.934 223.2 142.735 220 114.135Z" fill="white"/>
</g>
<path d="M170.3 237.935C166.6 237.935 162.9 237.535 159.3 236.635C146.9 233.735 136.3 226.135 129.7 215.335C123.1 204.635 121.1 192.035 124 179.835C132.8 143.235 128.4 103.235 113 77.8346C106.4 67.0346 104.5 54.4346 107.5 42.2346C110.5 29.9346 118.2 19.6347 129.1 13.0347C151.5 -0.46531 180.9 6.73469 194.4 29.0347C209.1 53.0347 218.6 82.3346 222.1 113.835C225.3 142.735 223.4 173.135 216.6 201.635C214.1 212.035 208.1 221.335 199.6 227.935C191.2 234.435 180.8 237.935 170.3 237.935ZM153.5 10.4347C145.8 10.4347 138.1 12.4347 131.1 16.6347C121.1 22.6347 114.1 32.0346 111.4 43.3346C108.7 54.4346 110.4 66.0346 116.4 75.8346C132.4 102.035 136.9 143.235 127.9 180.835C125.2 191.935 127.1 203.435 133.1 213.235C139.2 223.135 148.8 230.035 160.2 232.735C163.5 233.535 166.9 233.935 170.3 233.935C190.5 233.935 207.9 220.335 212.6 200.735C219.3 172.635 221.2 142.735 218.1 114.335C214.7 83.4346 205.3 54.7346 190.9 31.2346C182.7 17.8346 168.3 10.4347 153.5 10.4347Z" fill="#242568"/>
<path d="M146.8 69.135C143 70.235 138.8 67.235 137.5 62.635C136.8 59.935 137.1 57.335 138.3 55.335L149.3 54.835C150.2 55.935 151 57.235 151.4 58.835C152.7 63.435 150.6 68.035 146.8 69.135Z" fill="#242568"/>
<path d="M134 57.0347C133.1 57.0347 132.4 56.3347 132.4 55.4347C132.4 54.5347 133.1 53.7346 134 53.7346L149.7 53.0347C150.6 53.0347 151.4 53.7346 151.4 54.6346C151.4 55.5346 150.7 56.3346 149.8 56.3346H149.4L134 57.0347Z" fill="#242568"/>
<path d="M147.566 61.4601C148.387 61.3512 148.93 60.331 148.777 59.1813C148.625 58.0316 147.836 57.1877 147.014 57.2966C146.193 57.4054 145.651 58.4258 145.803 59.5755C145.956 60.7252 146.745 61.5689 147.566 61.4601Z" fill="white"/>
<path d="M181 51.2347C183.5 48.8347 183.3 44.4347 180.4 41.3347C178.8 39.5347 176.6 38.6348 174.6 38.6348L169.2 46.6348C169.6 47.8348 170.2 48.9348 171.2 50.0348C174.1 53.0348 178.5 53.6347 181 51.2347Z" fill="#242568"/>
<path d="M169 48.4346C168.7 48.4346 168.4 48.3345 168.1 48.1346C167.4 47.6346 167.2 46.6345 167.7 45.8345L175.4 34.4346C175.9 33.7346 176.9 33.5346 177.7 34.0346C178.4 34.5346 178.6 35.5345 178.1 36.3345L170.4 47.7345C170.1 48.2345 169.6 48.4346 169 48.4346Z" fill="#242568"/>
<path d="M172.51 45.2062C172.057 45.763 172.315 46.7232 173.086 47.3507C173.857 47.9781 174.849 48.0353 175.302 47.4785C175.756 46.9216 175.498 45.9616 174.727 45.3341C173.956 44.7066 172.964 44.6493 172.51 45.2062Z" fill="white"/>
<path d="M167.7 79.4348C166.2 79.4348 164.6 79.0347 163.1 78.3347C162.3 78.0347 162 77.0347 162.3 76.3347C162.6 75.5347 163.6 75.2348 164.3 75.5348C166.8 76.7348 169.3 76.5348 171.6 75.1348C175.1 72.9348 177.7 67.8348 177.9 62.6348C177.9 61.8348 178.6 61.1348 179.5 61.1348C180.3 61.1348 181 61.8347 181 62.7347C180.7 68.9347 177.6 74.9348 173.2 77.6348C171.5 78.9348 169.6 79.4348 167.7 79.4348Z" fill="#242568"/>
<path d="M173.7 64.0348C174.2 63.1348 174.9 62.4348 175.8 61.9348C176.7 61.4348 177.8 61.1348 178.8 61.1348C179.9 61.1348 181 61.4348 181.9 62.0348C182.8 62.6348 183.5 63.6348 183.6 64.6348C183.6 64.9348 183.4 65.2347 183.1 65.2347C183 65.2347 182.8 65.2348 182.7 65.1348C182 64.6348 181.4 64.2348 180.7 64.0348C180 63.8348 179.4 63.6348 178.7 63.6348C178 63.6348 177.3 63.6347 176.5 63.8347C175.8 64.0347 175 64.2348 174.2 64.6348C174 64.7348 173.7 64.6348 173.6 64.4348C173.6 64.3348 173.6 64.1348 173.7 64.0348Z" fill="#242568"/>
<g opacity="0.2">
<path d="M220.6 129.635C220.6 129.935 220.6 130.135 220.6 130.435C220.6 130.535 220.7 130.535 220.7 130.435C220.7 130.135 220.7 129.935 220.7 129.635C220.7 129.535 220.6 129.535 220.6 129.635Z" fill="#242568"/>
</g>
<g opacity="0.2">
<path d="M219.6 127.235C219.7 121.635 219.7 116.135 219.5 110.535C219.5 109.835 219.5 109.235 219.1 108.635C218.7 107.935 217.9 107.535 217.2 107.235C207.8 103.535 197.4 108.335 188.4 112.935C175.1 119.835 161.8 126.635 148.6 133.535C148.2 110.335 143.5 88.5351 134.8 72.4351C123.4 51.4351 129.5 24.035 148.3 11.335C150 10.135 151.8 9.13496 153.6 8.33496C145.6 8.33496 137.5 10.435 130.1 14.835C124.7 18.035 120.3 22.2351 116.8 26.9351C108.9 40.7351 108.6 58.335 117.5 72.835C133.5 98.835 138 139.835 129 177.235C123.1 201.735 138.5 226.235 163.4 232.035C167 232.835 170.6 233.235 174.1 233.235C182.1 233.235 189.9 231.135 196.7 227.435C199 226.235 201.1 224.735 203.1 223.135C202 223.835 200.9 224.435 199.7 225.035C194.6 227.635 189.1 229.035 183.4 229.035C180.4 229.035 177.3 228.635 174.2 227.835C152.8 222.135 139.6 198.235 144.7 174.335C145.6 170.135 146.3 165.935 146.9 161.635C148.2 151.935 154.5 143.635 163.5 139.635C165.7 138.635 167.9 137.535 170 136.435C171.8 135.435 173.8 134.335 175.9 134.535C177 134.635 178.1 135.135 179.2 135.535C187 138.135 196.5 132.135 197.4 123.935C197.5 123.035 197.5 121.935 198.1 121.235C198.6 120.635 199.5 120.335 200.3 120.135C205.3 119.035 210.8 120.235 214.9 123.335C217.3 125.135 219.1 127.535 220.3 130.335L219.6 127.235Z" fill="#242568"/>
</g>
<g opacity="0.2">
<path d="M220.3 130.235L221.8 136.535C221.6 134.335 221.1 132.235 220.3 130.235Z" fill="#242568"/>
</g>
<g opacity="0.2">
<path d="M209.1 61.6348C211.2 65.9348 211 71.0348 209.6 75.6348C208.2 80.2348 205.7 84.3347 203 88.3347C198.5 95.1347 193.4 101.835 186 105.235C187.9 107.435 189.7 109.635 191.4 112.035C198.3 109.635 205.5 106.935 210.4 101.535C213.9 97.6348 216 92.6348 216.8 87.5348C217.6 82.4348 217.2 77.1348 216.1 72.0348C215.1 67.2348 213 61.9348 208.5 60.1348" fill="#242568"/>
</g>
<g opacity="0.2">
<path d="M158.046 171.413C159.809 171.546 161.442 168.929 161.694 165.57C161.945 162.21 160.721 159.38 158.959 159.248C157.196 159.115 155.563 161.732 155.312 165.091C155.06 168.451 156.284 171.281 158.046 171.413Z" fill="#242568"/>
</g>
<g opacity="0.2">
<path d="M152.711 192.21C155.409 192.412 157.905 188.469 158.285 183.402C158.665 178.335 156.785 174.064 154.086 173.861C151.388 173.659 148.892 177.603 148.512 182.669C148.132 187.736 150.012 192.008 152.711 192.21Z" fill="#242568"/>
</g>
<g opacity="0.2">
<path d="M161.536 196.425C162.583 196.503 163.548 195.004 163.693 193.077C163.837 191.149 163.106 189.523 162.06 189.444C161.013 189.366 160.048 190.865 159.903 192.792C159.759 194.72 160.49 196.346 161.536 196.425Z" fill="#242568"/>
</g>
<path d="M231.2 124.535C229.5 131.535 226.4 137.535 221.5 141.335C221.5 132.535 221 123.335 220 113.735C211 112.035 203.1 114.335 196.5 119.535L188.4 108.935C212.5 93.5352 215.7 76.9352 206.9 59.5352C207.3 59.5352 207.7 59.5351 208.1 59.6351C224.9 61.4351 237.2 99.5352 231.2 124.535Z" fill="#FDD8CD"/>
<path d="M194.6 112.335C207.3 104.235 222 103.035 232.7 112.835C233.2 106.835 232.7 100.835 231.2 94.835C223 89.435 214.4 90.335 206.6 92.235C201.9 98.635 196.4 104.235 189.8 108.135L194.6 112.335Z" fill="#F04D23"/>
<path d="M229.9 88.7347C225.2 83.0347 217.8 82.6348 210.4 84.1348C211.4 82.2348 211.9 80.1348 212 77.9348C212.8 71.6348 210.9 65.5348 207 59.6348C214.8 60.3348 221.1 66.4348 226.1 77.9348C228 81.2348 229.1 84.8347 229.9 88.7347Z" fill="#F04D23"/>
<g opacity="0.6">
<path d="M193.2 105.735C191.7 106.835 190.1 107.935 188.5 108.935L188.7 109.135C190.3 108.035 191.8 106.935 193.2 105.735Z" fill="white"/>
<path d="M208.2 59.6351C207.8 59.6351 207.4 59.5352 207 59.5352C207.5 60.5352 208 61.6351 208.4 62.6351C223.5 68.4351 233.9 103.335 228.3 126.735C227 132.235 224.8 137.135 221.5 140.835C221.5 141.035 221.5 141.235 221.5 141.335C226.4 137.535 229.5 131.535 231.2 124.535C237.2 99.5352 224.9 61.4351 208.2 59.6351Z" fill="white"/>
</g>
<path d="M221.5 142.935C221.3 142.935 221 142.835 220.8 142.735C220.2 142.435 219.9 141.935 219.9 141.235C219.9 133.135 219.5 124.435 218.5 115.035C210.9 113.935 203.7 115.835 197.5 120.735C197.2 121.035 196.7 121.135 196.3 121.035C195.9 120.935 195.5 120.735 195.2 120.435L187.1 109.835C186.8 109.435 186.7 109.035 186.8 108.535C186.9 108.135 187.1 107.735 187.5 107.435C209.1 93.6349 214.7 78.6349 205.4 60.1349C205.1 59.6349 205.2 59.0349 205.5 58.5349C205.8 58.0349 206.3 57.7349 206.9 57.7349C215.8 57.7349 224.3 66.9348 229.6 82.3348C236.8 103.035 236.7 131.135 222.5 142.335C222.3 142.835 221.9 142.935 221.5 142.935ZM214.3 111.635C216.3 111.635 218.3 111.835 220.3 112.235C221 112.335 221.5 112.935 221.6 113.635C222.5 122.035 223 130.135 223.1 137.635C228.5 131.535 230.4 122.535 230.9 115.735C231.7 105.635 230.1 93.9349 226.6 83.7349C222.4 71.6349 216.1 63.5349 209.7 61.6349C213.4 70.1349 214 78.1349 211.5 85.5349C208.7 94.2349 201.9 102.035 190.7 109.435L196.7 117.335C202.1 113.535 208.1 111.635 214.3 111.635Z" fill="#242568"/>
<path d="M220.4 112.235C221.2 112.535 222 112.835 222.9 113.235C223.7 113.635 224.6 114.135 225.3 114.835C226 115.535 226.6 116.535 226.8 117.535C227 118.535 226.9 119.535 226.7 120.335C226.6 120.735 226.3 120.935 225.9 120.835C225.6 120.735 225.4 120.435 225.4 120.135C225.4 119.335 225.3 118.635 225.1 118.035C224.8 117.435 224.4 116.935 223.9 116.635C223.4 116.235 222.7 116.035 222 115.835C221.3 115.635 220.5 115.535 219.7 115.435C218.8 115.335 218.2 114.435 218.3 113.535C218.4 112.635 219.3 112.035 220.2 112.135C220.2 112.135 220.3 112.135 220.4 112.235Z" fill="#242568"/>
<g opacity="0.3">
<path d="M228.6 129.935C228.5 131.135 228.2 132.535 227.6 134.135C226 138.135 223 140.435 221.6 141.335C221.6 132.535 221.1 123.335 220.1 113.735C211.1 112.035 203.2 114.335 196.6 119.535L188.5 108.935C212.6 93.5352 215.8 76.9352 207 59.5352C207.4 59.5352 207.8 59.5351 208.2 59.6351C209.1 60.6351 209.7 61.8352 210.4 63.0352C212.7 67.6352 214.7 72.5351 215.6 77.6351C216.5 82.7351 216.3 88.1352 214.2 92.9352C213 95.6352 211.2 98.4351 211.7 101.335C212.2 104.335 215.2 106.135 218 107.935C222.3 110.835 223.8 110.035 226.2 112.635C228.6 115.135 229.3 118.135 229.6 119.435C230.6 124.335 229.3 128.235 228.6 129.935Z" fill="#242568"/>
</g>
<path d="M126.7 176.735C122.7 191.935 124.5 206.235 134.7 219.035C134 219.835 133.3 220.635 132.5 221.335C125.1 227.935 113 227.935 101.2 223.835C85.2998 219.635 76.0998 203.435 58.1998 205.635C54.3998 207.135 50.3998 208.635 46.3998 209.735C35.0998 213.035 23.3998 214.435 13.8998 210.835C10.1998 209.435 6.89979 207.335 3.99978 204.335C1.59978 201.735 1.2998 197.835 3.1998 194.835C16.5998 173.835 44.9998 156.035 72.2998 137.635C85.1998 128.935 95.4998 116.735 102 102.635C107 91.835 111.3 82.735 118.3 83.735C122.2 91.835 125.1 100.435 127 109.235C137.6 111.035 150.7 111.835 164.5 110.435C165.8 110.335 167.1 110.135 168.4 109.935L169.2 128.935C162.2 133.335 153.6 137.835 143.5 141.635C138.9 143.335 134.5 144.735 130.3 145.835C130.3 145.835 130.3 145.835 130.3 145.935C130.2 147.535 130.1 149.935 129.9 152.735C129 164.135 128.8 168.835 126.7 176.735Z" fill="#F04D23"/>
<path d="M34.6004 211.535C35.5004 199.135 41.1004 187.535 46.5004 176.335C47.2004 174.935 47.8004 173.635 48.8004 172.435C49.9004 171.135 51.3004 170.135 52.7004 169.235C58.9004 165.335 65.9004 162.335 73.2004 161.635C60.7004 174.335 51.0004 190.435 49.2004 208.135C44.9004 211.035 39.7004 212.735 34.4004 212.635" fill="#FDD8CD"/>
<path d="M79.3004 211.835C78.5004 194.135 86.6004 177.235 95.6004 161.935C98.2004 157.435 101.5 152.635 106.6 151.535C109.6 150.835 113 151.535 115.4 149.635C108.3 161.335 102 173.535 96.5004 186.135C94.2004 191.435 92.0004 196.835 90.9004 202.535C89.8004 208.235 90.0004 214.335 92.4004 219.635C87.9004 217.435 83.4004 215.235 78.9004 213.035" fill="#FDD8CD"/>
<path d="M109 226.535C107.3 218.135 108.7 209.235 111.9 201.335C115.1 193.335 120.1 186.235 125.4 179.535C123.8 185.435 124 191.835 125.9 197.735C126.1 198.435 126.4 199.135 126.4 199.935C126.5 201.035 126.1 202.035 125.7 203.035C122.8 210.035 119 217.535 121.1 224.735C121.2 225.135 121.3 225.535 121.1 225.835C120.9 226.135 120.4 226.235 120.1 226.335C116.2 226.735 112.3 226.835 108.4 226.635" fill="#FDD8CD"/>
<path d="M79.0996 131.035C88.9996 129.335 98.7996 127.335 108.5 124.935C119.7 122.135 131 118.735 139.8 111.235C133.4 110.435 127 109.235 120.8 107.835C113.8 112.835 105.5 115.935 96.8996 116.735C95.8996 116.835 94.7996 116.935 93.8996 117.335C92.6996 117.935 91.8996 119.035 91.0996 120.135C88.1996 124.135 84.6996 127.735 80.6996 130.735" fill="#FDD8CD"/>
<path d="M14.3003 210.235C10.0003 209.235 5.20033 207.835 3.00033 204.035C1.40033 201.235 1.50032 197.635 2.80032 194.635C4.00032 191.635 6.10032 189.135 8.30032 186.735C14.2003 180.435 20.7003 174.735 27.3003 169.135C30.2003 166.635 33.1003 164.135 36.4003 162.135C41.2003 159.135 46.7003 157.235 52.1003 155.435C83.6003 145.235 116.1 138.635 148.2 130.435C154.8 128.735 161.9 126.635 165.9 121.235C166.9 123.835 167.5 126.635 167.7 129.335C158.5 135.135 148.6 140.035 138.4 143.935C112.7 153.635 84.8003 156.735 59.3003 166.835C50.7003 170.235 42.4003 174.435 34.5003 179.335C28.9003 182.835 23.4003 186.835 19.4003 192.135C15.4003 197.435 13.0003 204.235 14.2003 210.735" fill="#FDD8CD"/>
<path d="M116.5 228.335C111.7 228.335 106.4 227.335 100.8 225.435C94.0999 223.635 88.5999 219.835 83.2999 216.235C75.7999 211.035 68.5999 206.135 58.6999 207.235C47.5999 211.735 37.5999 214.235 29.0999 214.635C17.8999 215.135 9.09992 212.135 2.99992 205.535C0.0999241 202.435 -0.300076 197.735 1.99992 194.135C14.1999 174.935 38.0999 158.935 63.3999 141.935C66.0999 140.135 68.8999 138.235 71.5999 136.435C84.2999 127.835 94.2999 116.035 100.8 102.035C105.8 91.2351 110.5 81.035 118.8 82.235C119.3 82.335 119.8 82.6351 120 83.1351C123.7 90.8351 126.6 99.1351 128.6 107.935C138 109.435 152.2 110.635 168.5 108.435C169 108.335 169.4 108.535 169.8 108.835C170.2 109.135 170.4 109.535 170.4 110.035L171.2 129.035C171.2 129.635 170.9 130.135 170.4 130.535C162.2 135.635 153.4 139.935 144.4 143.335C140.4 144.835 136.3 146.135 132.2 147.335C132.1 149.235 132 151.135 131.8 153.035L131.6 155.835C130.9 165.335 130.5 170.035 128.6 177.435C124.5 193.235 127 206.635 136.3 218.235C136.8 218.835 136.8 219.635 136.3 220.235C131.6 225.535 124.7 228.335 116.5 228.335ZM61.4999 203.735C70.9999 203.735 78.1999 208.635 85.0999 213.435C90.1999 216.935 95.4999 220.535 101.6 222.235H101.7C114.9 226.835 126.3 225.535 132.5 218.935C123.2 206.635 120.8 192.735 125.1 176.335C126.9 169.235 127.3 164.935 128 155.335L128.2 152.535C128.4 150.235 128.5 148.035 128.6 145.735C128.6 145.035 129.1 144.435 129.8 144.235C134.2 143.035 138.6 141.635 142.8 140.035C151.3 136.835 159.6 132.835 167.4 128.035L166.7 111.735C150.1 113.735 135.8 112.335 126.6 110.835C125.9 110.735 125.4 110.235 125.3 109.535C123.5 100.935 120.7 92.735 117.2 85.235C111.7 85.335 107.7 94.035 103.4 103.235C96.6999 117.735 86.2999 130.035 73.0999 138.935C70.3999 140.735 67.5999 142.635 64.8999 144.435C39.8999 161.235 16.2999 177.035 4.39992 195.635C2.89992 198.035 3.19993 201.035 5.09993 203.135C17.4999 216.335 40.3999 210.935 57.4999 204.035C57.5999 203.935 57.7999 203.935 57.8999 203.935C59.1999 203.835 60.3999 203.735 61.4999 203.735Z" fill="#242568"/>
<path d="M17.3002 213.535C16.9002 213.535 16.5002 213.335 16.2002 213.035C14.4002 211.335 13.2002 209.335 12.6002 207.135C10.6002 199.735 16.6002 192.635 20.3002 188.335C23.0002 185.135 27.6002 180.635 34.1002 176.835C53.0002 165.835 68.1002 161.035 68.2002 160.935C87.8002 154.735 108.6 149.135 130.1 144.135C131 143.935 131.9 144.435 132.1 145.335C132.3 146.235 131.8 147.135 130.9 147.335C109.4 152.335 88.7002 157.935 69.2002 164.135C69.1002 164.135 54.3002 168.935 35.8002 179.735C29.7002 183.235 25.4002 187.535 22.9002 190.535C19.5002 194.535 14.3002 200.635 15.9002 206.335C16.3002 207.935 17.3002 209.335 18.6002 210.735C19.3002 211.335 19.3002 212.435 18.7002 213.035C18.1002 213.435 17.7002 213.535 17.3002 213.535Z" fill="#242568"/>
<path d="M126.8 110.835C125.3 110.535 123.7 110.135 122.2 109.535C120.7 108.935 119.3 108.035 118.1 106.935C116.9 105.835 115.9 104.435 115.3 103.035C114.7 101.535 114.3 100.035 114.2 98.4348C114.2 98.0348 114.5 97.6348 114.9 97.6348C115.3 97.6348 115.6 97.8347 115.7 98.2347C116 99.6347 116.4 100.935 117.1 102.135C117.8 103.335 118.7 104.335 119.7 105.135C121.8 106.735 124.5 107.435 127.3 107.635C128.2 107.735 128.9 108.535 128.8 109.435C128.7 110.335 127.9 111.035 127 110.935C127 110.835 126.9 110.835 126.8 110.835Z" fill="#242568"/>
<g opacity="0.3">
<path d="M168.1 110.335C167.4 111.235 166.2 112.635 164.6 113.935C158.6 118.835 151.6 119.235 142.1 119.435C121.6 119.835 121.6 118.435 116.8 119.835C109 122.035 102.9 128.135 96.7998 133.535C84.4998 144.235 70.4998 152.835 55.3998 158.935C52.3998 160.135 49.0998 161.535 47.6998 164.335C46.2998 167.235 48.5998 171.735 51.6998 170.935C39.9998 175.235 31.8998 180.935 26.9998 185.035C15.6998 194.435 14.5998 200.535 14.2998 202.235C13.5998 206.935 14.8998 210.935 15.8998 213.335C12.1998 211.935 8.89979 209.835 5.99978 206.835C3.59978 204.235 3.2998 200.335 5.1998 197.335C18.5998 176.335 46.9998 158.535 74.2998 140.135C87.1998 131.435 97.4998 119.235 104 105.135C109 94.335 113.3 85.235 120.3 86.235C122 89.835 123.8 94.035 125.4 98.735C126.8 103.035 127.9 107.035 128.7 110.635C134.1 111.335 140.2 111.835 146.9 111.835C154.9 111.735 162 111.135 168.1 110.335Z" fill="#242568"/>
</g>
<g opacity="0.3">
<path d="M134.699 214.835C133.999 215.635 133.299 216.335 132.499 217.035C124.099 221.435 113.899 222.735 104.599 220.235C97.0995 218.235 90.3995 214.035 84.1995 209.635C78.2995 205.535 71.9995 200.935 64.6995 200.535C62.2995 200.435 59.8995 200.735 57.5995 201.335C55.2995 201.935 53.3995 199.535 54.5995 197.435C55.8995 195.135 56.9995 192.635 57.8995 190.135C60.0995 183.935 61.2995 177.335 64.2995 171.435C67.2995 165.535 72.5995 160.135 79.3995 159.035L73.6995 159.735C92.5995 155.035 111.599 150.435 130.499 145.735C130.399 147.235 130.299 149.435 130.099 152.135C129.199 162.935 128.899 167.435 126.899 174.835C122.799 189.335 124.499 202.735 134.699 214.835Z" fill="#242568"/>
</g>
<path d="M195.8 114.235C193.6 120.435 191 125.235 187.9 128.535C184 132.835 179.2 134.535 173.6 133.535C163.1 129.635 162.9 119.035 167.5 111.335C173.1 101.935 185.9 96.8351 195.8 114.235Z" fill="#F04D23"/>
<g opacity="0.6">
<path d="M167.601 114.935C173.001 105.735 185.301 100.735 195.101 116.435C195.401 115.735 195.701 115.035 195.901 114.235C186.001 96.8349 173.201 101.835 167.601 111.335C165.501 114.835 164.401 119.035 164.901 122.835C165.101 120.135 166.101 117.435 167.601 114.935Z" fill="white"/>
</g>
<path d="M176.8 135.535C175.7 135.535 174.6 135.435 173.4 135.235C173.3 135.235 173.2 135.235 173.1 135.135C166.3 132.635 162.7 127.135 163.1 120.035C163.6 111.335 170 103.235 177.6 101.435C181.8 100.435 190 100.735 197.2 113.435C197.4 113.835 197.5 114.335 197.3 114.835C192.5 128.535 185.6 135.535 176.8 135.535ZM174.1 132.035C182.7 133.535 189.2 127.835 194.1 114.435C189.6 106.835 184 103.335 178.4 104.635C172.2 106.035 166.9 113.035 166.4 120.235C166.2 123.435 166.9 129.335 174.1 132.035Z" fill="#242568"/>
<path d="M198.5 124.035C197.1 130.935 193.5 135.435 188.8 137.035C184.5 138.435 179.2 137.435 173.7 133.635C178.1 134.135 182 132.635 182.4 129.135C182.5 128.135 182.1 127.235 181.4 126.635C179.1 124.535 177.9 122.035 177.6 119.635C177.1 115.635 178.9 111.735 182.3 110.235C182.8 110.035 183.3 109.835 183.8 109.735C186.6 109.135 190.1 109.935 194.2 112.835C194.8 113.335 195.4 113.835 195.9 114.435C198.2 116.835 199.2 120.435 198.5 124.035Z" fill="#F04D23"/>
<g opacity="0.6">
<path d="M195.8 114.235C195.3 113.635 194.7 113.135 194.1 112.635C190 109.635 186.5 108.935 183.7 109.535C183.2 109.635 182.7 109.835 182.2 110.035C180.4 110.835 179 112.335 178.2 114.135C178.8 113.535 179.5 113.135 180.2 112.735C180.7 112.535 181.2 112.335 181.7 112.235C184.5 111.635 188 112.435 192.1 115.335C192.7 115.835 193.3 116.335 193.8 116.935C196.1 119.535 197.2 123.135 196.4 126.635C195.9 129.135 195.1 131.335 194.1 133.235C196.1 130.935 197.6 127.835 198.4 123.935C199.2 120.435 198.2 116.835 195.8 114.235Z" fill="white"/>
</g>
<path d="M184.8 139.235C180.9 139.235 176.8 137.735 172.7 134.935C172.1 134.535 171.8 133.735 172.1 133.035C172.4 132.335 173.1 131.935 173.8 131.935C176.2 132.235 178.4 131.735 179.6 130.735C180.2 130.235 180.6 129.635 180.6 128.835C180.6 128.435 180.5 128.035 180.1 127.635C174.5 122.535 174.7 115.235 178 111.035C180.9 107.535 187 105.435 194.9 111.235C198.9 114.135 200.9 119.235 199.9 124.135C198.5 131.035 195 136.035 189.9 138.035C188.5 138.935 186.7 139.235 184.8 139.235ZM179.1 134.735C182.6 136.135 186 136.335 188.9 135.235C192.9 133.635 195.7 129.535 196.9 123.735C197.6 120.035 196.2 116.235 193.1 114.035C188 110.335 183.3 110.035 180.6 113.235C178.2 116.235 178.2 121.535 182.3 125.335C183.4 126.335 184 127.835 183.9 129.235C183.7 130.835 183 132.335 181.7 133.335C181 133.935 180.1 134.435 179.1 134.735Z" fill="#242568"/>
<path d="M181 123.735C181.4 124.335 182 124.935 182.6 125.535C183.2 126.135 183.9 126.635 184.6 127.135C185.3 127.635 186.1 128.235 186.8 128.935C187.5 129.635 188.1 130.635 188.3 131.735C188.4 132.135 188.1 132.435 187.7 132.535C187.4 132.635 187.1 132.435 186.9 132.135C186.6 131.435 186.1 130.835 185.5 130.435C184.9 129.935 184.1 129.635 183.3 129.235C182.5 128.835 181.6 128.435 180.8 127.835C180 127.335 179.1 126.635 178.4 125.935C177.8 125.335 177.8 124.235 178.4 123.635C179 123.035 180.1 123.035 180.7 123.635C180.8 123.535 180.9 123.635 181 123.735Z" fill="#242568"/>
<g opacity="0.3">
<path d="M189.6 135.235C189.5 135.835 189.2 136.435 188.8 136.935C184.5 138.335 179.2 137.335 173.7 133.535C163.2 129.635 163 119.035 167.6 111.335C167 113.335 167.2 115.535 168.1 117.335C169 119.235 170.8 120.735 172.8 121.235C174.5 121.635 176.5 121.235 177.5 119.735C177.5 119.635 177.6 119.535 177.6 119.535C178.2 118.335 178.1 116.935 178.3 115.635C178.7 113.335 180.2 111.235 182.3 110.135C182.9 109.835 183.5 109.635 184.1 109.435C184 109.535 183.9 109.535 183.8 109.635C181 111.835 180.5 115.935 181.1 119.435C181.4 121.235 182 123.035 183.1 124.435C184.1 125.735 185.5 126.635 186.7 127.535C187.2 127.835 187.6 128.235 188.1 128.635C188.9 129.335 189.6 130.135 190 131.035C190.5 132.335 190.6 134.135 189.6 135.235Z" fill="#242568"/>
</g>
<g opacity="0.2">
<path d="M134.4 287.035C191.12 287.035 237.1 283.587 237.1 279.335C237.1 275.082 191.12 271.635 134.4 271.635C77.6805 271.635 31.7002 275.082 31.7002 279.335C31.7002 283.587 77.6805 287.035 134.4 287.035Z" fill="#242568"/>
</g>
</svg>
