<svg width="208" height="175" viewBox="0 0 208 175" fill="none" xmlns="http://www.w3.org/2000/svg">
<path d="M206.658 81.2766C206.658 94.2573 203.266 104.878 197.07 113.433C186.007 128.626 165.799 137.182 139.69 140.427C150.458 164.618 178.484 172.436 178.484 172.436C129.069 176.124 101.043 154.883 88.3574 141.017C41.1551 136.887 1.47559 119.186 1.47559 81.2766C1.47559 76.1139 2.06569 70.9511 3.39325 65.9358C12.5387 29.2065 54.1357 1.4751 103.993 1.4751C160.783 1.4751 206.658 37.1719 206.658 81.2766Z" fill="white"/>
<path d="M139.69 140.427C150.458 164.618 178.484 172.436 178.484 172.436C129.069 176.124 101.043 154.882 88.3574 141.017C41.1551 136.887 1.47559 119.186 1.47559 81.2763C1.47559 76.1136 2.06569 70.9508 3.39325 65.9355C13.8663 84.8165 41.45 120.218 95.2902 120.071C95.2902 120.071 106.058 140.132 127.447 148.097L124.497 127.004L197.218 113.285C186.155 128.626 165.946 137.182 139.69 140.427Z" fill="#B9E4FA"/>
<path d="M167.568 174.354C124.496 174.354 99.42 155.03 87.6194 142.492C62.3956 140.132 41.3021 134.232 26.4038 125.086C8.85048 114.318 0 99.5675 0 81.2766C0 36.4344 46.6123 0 103.993 0C161.373 0 207.985 36.4344 207.985 81.2766C207.985 115.351 185.712 135.707 141.755 141.607C152.67 163.586 178.631 170.961 178.779 170.961L186.892 173.174L178.484 173.764C174.796 174.206 171.108 174.354 167.568 174.354ZM104.14 2.95015C48.3824 2.95015 3.09771 38.0569 3.09771 81.2766C3.09771 98.5349 11.5056 112.401 28.174 122.579C42.7772 131.429 63.7231 137.329 88.6519 139.542H89.2419L89.6845 139.984C101.19 152.375 126.856 172.436 171.551 171.256C162.406 167.273 146.327 158.275 138.657 141.017L137.919 139.247L139.837 138.952C183.352 133.494 205.478 114.023 205.478 81.2766C205.183 38.0569 159.898 2.95015 104.14 2.95015Z" fill="#38313C"/>
</svg>
